[
  {
    "header": {
      "PPQ": 480,
      "bpm": 60,
      "timeSignature": [
        2,
        4
      ],
      "name": "Piano LH"
    },
    "startTime": 0,
    "duration": 98.45208333333333,
    "tracks": [
      {
        "startTime": 0,
        "duration": 0,
        "length": 0,
        "notes": [],
        "controlChanges": {},
        "id": 0
      },
      {
        "startTime": 0,
        "duration": 98.45208333333333,
        "length": 183,
        "notes": [
          {
            "name": "A4",
            "midi": 69,
            "time": 0,
            "velocity": 0.7086614173228346,
            "duration": 0.225
          },
          {
            "name": "B4",
            "midi": 71,
            "time": 0.25,
            "velocity": 0.8110236220472441,
            "duration": 0.22499999999999998
          },
          {
            "name": "C#5",
            "midi": 73,
            "time": 0.5,
            "velocity": 0.8031496062992126,
            "duration": 0.4520833333333334
          },
          {
            "name": "C#5",
            "midi": 73,
            "time": 1,
            "velocity": 0.7716535433070866,
            "duration": 0.2250000000000001
          },
          {
            "name": "C#5",
            "midi": 73,
            "time": 1.25,
            "velocity": 0.7716535433070866,
            "duration": 0.4750000000000001
          },
          {
            "name": "B4",
            "midi": 71,
            "time": 1.75,
            "velocity": 0.7244094488188977,
            "duration": 0.2250000000000001
          },
          {
            "name": "C#5",
            "midi": 73,
            "time": 2,
            "velocity": 0.8110236220472441,
            "duration": 0.4520833333333334
          },
          {
            "name": "E5",
            "midi": 76,
            "time": 2.5,
            "velocity": 0.8188976377952756,
            "duration": 0.4520833333333334
          },
          {
            "name": "C#5",
            "midi": 73,
            "time": 3,
            "velocity": 0.7007874015748031,
            "duration": 0.9020833333333336
          },
          {
            "name": "B4",
            "midi": 71,
            "time": 4,
            "velocity": 0.6929133858267716,
            "duration": 0.4520833333333334
          },
          {
            "name": "A4",
            "midi": 69,
            "time": 4.5,
            "velocity": 0.6771653543307087,
            "duration": 0.4520833333333334
          },
          {
            "name": "A4",
            "midi": 69,
            "time": 5,
            "velocity": 0.7244094488188977,
            "duration": 0.22499999999999964
          },
          {
            "name": "A4",
            "midi": 69,
            "time": 5.25,
            "velocity": 0.7952755905511811,
            "duration": 0.47499999999999964
          },
          {
            "name": "G#4",
            "midi": 68,
            "time": 5.75,
            "velocity": 0.7637795275590551,
            "duration": 0.22499999999999964
          },
          {
            "name": "A4",
            "midi": 69,
            "time": 6,
            "velocity": 0.7952755905511811,
            "duration": 0.4520833333333334
          },
          {
            "name": "B4",
            "midi": 71,
            "time": 6.5,
            "velocity": 0.7795275590551181,
            "duration": 1.3499999999999996
          },
          {
            "name": "A4",
            "midi": 69,
            "time": 8,
            "velocity": 0.7086614173228346,
            "duration": 0.22499999999999964
          },
          {
            "name": "B4",
            "midi": 71,
            "time": 8.25,
            "velocity": 0.7874015748031497,
            "duration": 0.22499999999999964
          },
          {
            "name": "C#5",
            "midi": 73,
            "time": 8.5,
            "velocity": 0.8503937007874016,
            "duration": 0.4520833333333325
          },
          {
            "name": "C#5",
            "midi": 73,
            "time": 9,
            "velocity": 0.7401574803149606,
            "duration": 0.22499999999999964
          },
          {
            "name": "C#5",
            "midi": 73,
            "time": 9.25,
            "velocity": 0.7559055118110236,
            "duration": 0.47499999999999964
          },
          {
            "name": "B4",
            "midi": 71,
            "time": 9.75,
            "velocity": 0.7244094488188977,
            "duration": 0.22499999999999964
          },
          {
            "name": "C#5",
            "midi": 73,
            "time": 10,
            "velocity": 0.7795275590551181,
            "duration": 0.4520833333333325
          },
          {
            "name": "E5",
            "midi": 76,
            "time": 10.5,
            "velocity": 0.8110236220472441,
            "duration": 0.4520833333333325
          },
          {
            "name": "C#5",
            "midi": 73,
            "time": 11,
            "velocity": 0.7322834645669292,
            "duration": 0.9020833333333336
          },
          {
            "name": "E5",
            "midi": 76,
            "time": 12,
            "velocity": 0.84251968503937,
            "duration": 0.4520833333333325
          },
          {
            "name": "F#5",
            "midi": 78,
            "time": 12.5,
            "velocity": 0.8110236220472441,
            "duration": 0.4520833333333325
          },
          {
            "name": "F#5",
            "midi": 78,
            "time": 13,
            "velocity": 0.7874015748031497,
            "duration": 0.22499999999999964
          },
          {
            "name": "F#5",
            "midi": 78,
            "time": 13.25,
            "velocity": 0.7637795275590551,
            "duration": 0.47499999999999964
          },
          {
            "name": "E5",
            "midi": 76,
            "time": 13.75,
            "velocity": 0.6929133858267716,
            "duration": 0.22499999999999964
          },
          {
            "name": "C#5",
            "midi": 73,
            "time": 14,
            "velocity": 0.7086614173228346,
            "duration": 0.4520833333333325
          },
          {
            "name": "B4",
            "midi": 71,
            "time": 14.5,
            "velocity": 0.7322834645669292,
            "duration": 1.3499999999999996
          },
          {
            "name": "A4",
            "midi": 69,
            "time": 16,
            "velocity": 0.6929133858267716,
            "duration": 0.22500000000000142
          },
          {
            "name": "B4",
            "midi": 71,
            "time": 16.25,
            "velocity": 0.8031496062992126,
            "duration": 0.22500000000000142
          },
          {
            "name": "C#5",
            "midi": 73,
            "time": 16.5,
            "velocity": 0.8110236220472441,
            "duration": 0.4520833333333343
          },
          {
            "name": "C#5",
            "midi": 73,
            "time": 17,
            "velocity": 0.7401574803149606,
            "duration": 0.22500000000000142
          },
          {
            "name": "C#5",
            "midi": 73,
            "time": 17.25,
            "velocity": 0.7637795275590551,
            "duration": 0.4750000000000014
          },
          {
            "name": "B4",
            "midi": 71,
            "time": 17.75,
            "velocity": 0.6929133858267716,
            "duration": 0.22500000000000142
          },
          {
            "name": "C#5",
            "midi": 73,
            "time": 18,
            "velocity": 0.8188976377952756,
            "duration": 0.4520833333333343
          },
          {
            "name": "E5",
            "midi": 76,
            "time": 18.5,
            "velocity": 0.8346456692913385,
            "duration": 0.4520833333333343
          },
          {
            "name": "C#5",
            "midi": 73,
            "time": 19,
            "velocity": 0.7007874015748031,
            "duration": 0.9020833333333336
          },
          {
            "name": "B4",
            "midi": 71,
            "time": 20,
            "velocity": 0.6692913385826772,
            "duration": 0.4520833333333343
          },
          {
            "name": "A4",
            "midi": 69,
            "time": 20.5,
            "velocity": 0.7165354330708661,
            "duration": 0.4520833333333343
          },
          {
            "name": "A4",
            "midi": 69,
            "time": 21,
            "velocity": 0.7795275590551181,
            "duration": 0.22500000000000142
          },
          {
            "name": "A4",
            "midi": 69,
            "time": 21.25,
            "velocity": 0.7244094488188977,
            "duration": 0.4750000000000014
          },
          {
            "name": "G#4",
            "midi": 68,
            "time": 21.75,
            "velocity": 0.7086614173228346,
            "duration": 0.22500000000000142
          },
          {
            "name": "A4",
            "midi": 69,
            "time": 22,
            "velocity": 0.7716535433070866,
            "duration": 0.4520833333333343
          },
          {
            "name": "B4",
            "midi": 71,
            "time": 22.5,
            "velocity": 0.8110236220472441,
            "duration": 1.3500000000000014
          },
          {
            "name": "A4",
            "midi": 69,
            "time": 24,
            "velocity": 0.6929133858267716,
            "duration": 0.22500000000000142
          },
          {
            "name": "B4",
            "midi": 71,
            "time": 24.25,
            "velocity": 0.8031496062992126,
            "duration": 0.22500000000000142
          },
          {
            "name": "C#5",
            "midi": 73,
            "time": 24.5,
            "velocity": 0.7952755905511811,
            "duration": 0.4520833333333343
          },
          {
            "name": "C#5",
            "midi": 73,
            "time": 25,
            "velocity": 0.7244094488188977,
            "duration": 0.22500000000000142
          },
          {
            "name": "C#5",
            "midi": 73,
            "time": 25.25,
            "velocity": 0.7244094488188977,
            "duration": 0.4750000000000014
          },
          {
            "name": "B4",
            "midi": 71,
            "time": 25.75,
            "velocity": 0.7086614173228346,
            "duration": 0.22500000000000142
          },
          {
            "name": "A4",
            "midi": 69,
            "time": 26,
            "velocity": 0.7086614173228346,
            "duration": 0.34375
          },
          {
            "name": "F#4",
            "midi": 66,
            "time": 26.5,
            "velocity": 0.6771653543307087,
            "duration": 0.4520833333333343
          },
          {
            "name": "A4",
            "midi": 69,
            "time": 27,
            "velocity": 0.8031496062992126,
            "duration": 0.9020833333333336
          },
          {
            "name": "B4",
            "midi": 71,
            "time": 28,
            "velocity": 0.7874015748031497,
            "duration": 0.4520833333333343
          },
          {
            "name": "A4",
            "midi": 69,
            "time": 28.5,
            "velocity": 0.7322834645669292,
            "duration": 1.7250000000000014
          },
          {
            "name": "A4",
            "midi": 69,
            "time": 30,
            "velocity": 0.6220472440944882,
            "duration": 1.8500000000000014
          },
          {
            "name": "G#4",
            "midi": 68,
            "time": 30.25,
            "velocity": 0.5905511811023622,
            "duration": 0.22500000000000142
          },
          {
            "name": "F#4",
            "midi": 66,
            "time": 30.5,
            "velocity": 0.5826771653543307,
            "duration": 1.2250000000000014
          },
          {
            "name": "E4",
            "midi": 64,
            "time": 31.75,
            "velocity": 0.5826771653543307,
            "duration": 0.22500000000000142
          },
          {
            "name": "F#4",
            "midi": 66,
            "time": 32,
            "velocity": 0.6377952755905512,
            "duration": 0.4520833333333343
          },
          {
            "name": "C#4",
            "midi": 61,
            "time": 32.5,
            "velocity": 0.47244094488188976,
            "duration": 0.4520833333333343
          },
          {
            "name": "E4",
            "midi": 64,
            "time": 33,
            "velocity": 0.6456692913385826,
            "duration": 0.90208333333333
          },
          {
            "name": "A4",
            "midi": 69,
            "time": 34,
            "velocity": 0.7086614173228346,
            "duration": 0.22500000000000142
          },
          {
            "name": "G#4",
            "midi": 68,
            "time": 34.25,
            "velocity": 0.5826771653543307,
            "duration": 0.22500000000000142
          },
          {
            "name": "F#4",
            "midi": 66,
            "time": 34.5,
            "velocity": 0.5984251968503937,
            "duration": 1.2250000000000014
          },
          {
            "name": "E4",
            "midi": 64,
            "time": 35.75,
            "velocity": 0.5905511811023622,
            "duration": 0.22500000000000142
          },
          {
            "name": "F#4",
            "midi": 66,
            "time": 36,
            "velocity": 0.6456692913385826,
            "duration": 0.4520833333333343
          },
          {
            "name": "C#4",
            "midi": 61,
            "time": 36.5,
            "velocity": 0.48031496062992124,
            "duration": 1.3500000000000014
          },
          {
            "name": "A4",
            "midi": 69,
            "time": 38,
            "velocity": 0.7637795275590551,
            "duration": 0.22500000000000142
          },
          {
            "name": "G#4",
            "midi": 68,
            "time": 38.25,
            "velocity": 0.5748031496062992,
            "duration": 0.22500000000000142
          },
          {
            "name": "F#4",
            "midi": 66,
            "time": 38.5,
            "velocity": 0.6220472440944882,
            "duration": 1.2250000000000014
          },
          {
            "name": "E4",
            "midi": 64,
            "time": 39.75,
            "velocity": 0.5826771653543307,
            "duration": 0.22500000000000142
          },
          {
            "name": "F#4",
            "midi": 66,
            "time": 40,
            "velocity": 0.6614173228346457,
            "duration": 0.4520833333333343
          },
          {
            "name": "C#4",
            "midi": 61,
            "time": 40.5,
            "velocity": 0.48031496062992124,
            "duration": 0.4520833333333343
          },
          {
            "name": "E4",
            "midi": 64,
            "time": 41,
            "velocity": 0.6456692913385826,
            "duration": 0.90208333333333
          },
          {
            "name": "E4",
            "midi": 64,
            "time": 42,
            "velocity": 0.6377952755905512,
            "duration": 0.4520833333333343
          },
          {
            "name": "F#4",
            "midi": 66,
            "time": 42.5,
            "velocity": 0.6850393700787402,
            "duration": 1.2250000000000014
          },
          {
            "name": "G#4",
            "midi": 68,
            "time": 43.75,
            "velocity": 0.6929133858267716,
            "duration": 0.22500000000000142
          },
          {
            "name": "A4",
            "midi": 69,
            "time": 44,
            "velocity": 0.6377952755905512,
            "duration": 0.4520833333333343
          },
          {
            "name": "G#4",
            "midi": 68,
            "time": 44.5,
            "velocity": 0.5984251968503937,
            "duration": 1.3500000000000014
          },
          {
            "name": "A4",
            "midi": 69,
            "time": 46,
            "velocity": 0.6614173228346457,
            "duration": 0.22500000000000142
          },
          {
            "name": "G#4",
            "midi": 68,
            "time": 46.25,
            "velocity": 0.6141732283464567,
            "duration": 0.22500000000000142
          },
          {
            "name": "F#4",
            "midi": 66,
            "time": 46.5,
            "velocity": 0.5905511811023622,
            "duration": 1.2250000000000014
          },
          {
            "name": "E4",
            "midi": 64,
            "time": 47.75,
            "velocity": 0.5905511811023622,
            "duration": 0.22500000000000142
          },
          {
            "name": "F#4",
            "midi": 66,
            "time": 48,
            "velocity": 0.6614173228346457,
            "duration": 0.4520833333333343
          },
          {
            "name": "C#4",
            "midi": 61,
            "time": 48.5,
            "velocity": 0.47244094488188976,
            "duration": 0.4520833333333343
          },
          {
            "name": "E4",
            "midi": 64,
            "time": 49,
            "velocity": 0.7165354330708661,
            "duration": 0.90208333333333
          },
          {
            "name": "A4",
            "midi": 69,
            "time": 50,
            "velocity": 0.6929133858267716,
            "duration": 0.22500000000000142
          },
          {
            "name": "G#4",
            "midi": 68,
            "time": 50.25,
            "velocity": 0.6062992125984252,
            "duration": 0.22500000000000142
          },
          {
            "name": "F#4",
            "midi": 66,
            "time": 50.5,
            "velocity": 0.5826771653543307,
            "duration": 1.2250000000000014
          },
          {
            "name": "E4",
            "midi": 64,
            "time": 51.75,
            "velocity": 0.6062992125984252,
            "duration": 0.22500000000000142
          },
          {
            "name": "F#4",
            "midi": 66,
            "time": 52,
            "velocity": 0.6614173228346457,
            "duration": 0.4520833333333343
          },
          {
            "name": "C#4",
            "midi": 61,
            "time": 52.5,
            "velocity": 0.44881889763779526,
            "duration": 1.3500000000000014
          },
          {
            "name": "A4",
            "midi": 69,
            "time": 54,
            "velocity": 0.7086614173228346,
            "duration": 0.22500000000000142
          },
          {
            "name": "G#4",
            "midi": 68,
            "time": 54.25,
            "velocity": 0.6535433070866141,
            "duration": 0.22500000000000142
          },
          {
            "name": "F#4",
            "midi": 66,
            "time": 54.5,
            "velocity": 0.5748031496062992,
            "duration": 1.2250000000000014
          },
          {
            "name": "E4",
            "midi": 64,
            "time": 55.75,
            "velocity": 0.5511811023622047,
            "duration": 0.22500000000000142
          },
          {
            "name": "F#4",
            "midi": 66,
            "time": 56,
            "velocity": 0.6456692913385826,
            "duration": 0.4520833333333343
          },
          {
            "name": "C#4",
            "midi": 61,
            "time": 56.5,
            "velocity": 0.4881889763779528,
            "duration": 0.4520833333333343
          },
          {
            "name": "E4",
            "midi": 64,
            "time": 57,
            "velocity": 0.6535433070866141,
            "duration": 0.90208333333333
          },
          {
            "name": "E4",
            "midi": 64,
            "time": 58,
            "velocity": 0.7165354330708661,
            "duration": 0.4520833333333343
          },
          {
            "name": "F#4",
            "midi": 66,
            "time": 58.5,
            "velocity": 0.7637795275590551,
            "duration": 1.2250000000000014
          },
          {
            "name": "G#4",
            "midi": 68,
            "time": 59.75,
            "velocity": 0.7795275590551181,
            "duration": 0.22500000000000142
          },
          {
            "name": "A4",
            "midi": 69,
            "time": 60,
            "velocity": 0.7637795275590551,
            "duration": 0.4520833333333343
          },
          {
            "name": "B4",
            "midi": 71,
            "time": 60.5,
            "velocity": 0.7795275590551181,
            "duration": 1.3500000000000014
          },
          {
            "name": "A4",
            "midi": 69,
            "time": 62,
            "velocity": 0.6929133858267716,
            "duration": 0.22500000000000142
          },
          {
            "name": "B4",
            "midi": 71,
            "time": 62.25,
            "velocity": 0.8031496062992126,
            "duration": 0.22500000000000142
          },
          {
            "name": "C#5",
            "midi": 73,
            "time": 62.5,
            "velocity": 0.8110236220472441,
            "duration": 0.4520833333333343
          },
          {
            "name": "C#5",
            "midi": 73,
            "time": 63,
            "velocity": 0.7716535433070866,
            "duration": 0.22500000000000142
          },
          {
            "name": "C#5",
            "midi": 73,
            "time": 63.25,
            "velocity": 0.7559055118110236,
            "duration": 0.4750000000000014
          },
          {
            "name": "B4",
            "midi": 71,
            "time": 63.75,
            "velocity": 0.6692913385826772,
            "duration": 0.22500000000000142
          },
          {
            "name": "C#5",
            "midi": 73,
            "time": 64,
            "velocity": 0.8110236220472441,
            "duration": 0.4520833333333343
          },
          {
            "name": "E5",
            "midi": 76,
            "time": 64.5,
            "velocity": 0.8267716535433071,
            "duration": 0.4520833333333343
          },
          {
            "name": "C#5",
            "midi": 73,
            "time": 65,
            "velocity": 0.7401574803149606,
            "duration": 0.9020833333333371
          },
          {
            "name": "B4",
            "midi": 71,
            "time": 66,
            "velocity": 0.7165354330708661,
            "duration": 0.4520833333333343
          },
          {
            "name": "A4",
            "midi": 69,
            "time": 66.5,
            "velocity": 0.7165354330708661,
            "duration": 0.4520833333333343
          },
          {
            "name": "A4",
            "midi": 69,
            "time": 67,
            "velocity": 0.7716535433070866,
            "duration": 0.22499999999999432
          },
          {
            "name": "A4",
            "midi": 69,
            "time": 67.25,
            "velocity": 0.7559055118110236,
            "duration": 0.4749999999999943
          },
          {
            "name": "G#4",
            "midi": 68,
            "time": 67.75,
            "velocity": 0.6929133858267716,
            "duration": 0.22499999999999432
          },
          {
            "name": "A4",
            "midi": 69,
            "time": 68,
            "velocity": 0.7795275590551181,
            "duration": 0.4520833333333343
          },
          {
            "name": "B4",
            "midi": 71,
            "time": 68.5,
            "velocity": 0.8188976377952756,
            "duration": 1.3499999999999943
          },
          {
            "name": "A4",
            "midi": 69,
            "time": 70,
            "velocity": 0.7086614173228346,
            "duration": 0.22499999999999432
          },
          {
            "name": "B4",
            "midi": 71,
            "time": 70.25,
            "velocity": 0.8031496062992126,
            "duration": 0.22499999999999432
          },
          {
            "name": "C#5",
            "midi": 73,
            "time": 70.5,
            "velocity": 0.8582677165354331,
            "duration": 0.4520833333333343
          },
          {
            "name": "C#5",
            "midi": 73,
            "time": 71,
            "velocity": 0.7401574803149606,
            "duration": 0.22499999999999432
          },
          {
            "name": "C#5",
            "midi": 73,
            "time": 71.25,
            "velocity": 0.7559055118110236,
            "duration": 0.4749999999999943
          },
          {
            "name": "B4",
            "midi": 71,
            "time": 71.75,
            "velocity": 0.6771653543307087,
            "duration": 0.22499999999999432
          },
          {
            "name": "C#5",
            "midi": 73,
            "time": 72,
            "velocity": 0.8031496062992126,
            "duration": 0.4520833333333343
          },
          {
            "name": "E5",
            "midi": 76,
            "time": 72.5,
            "velocity": 0.8110236220472441,
            "duration": 0.4520833333333343
          },
          {
            "name": "C#5",
            "midi": 73,
            "time": 73,
            "velocity": 0.6850393700787402,
            "duration": 0.9020833333333371
          },
          {
            "name": "E5",
            "midi": 76,
            "time": 74,
            "velocity": 0.7795275590551181,
            "duration": 0.4520833333333343
          },
          {
            "name": "F#5",
            "midi": 78,
            "time": 74.5,
            "velocity": 0.8267716535433071,
            "duration": 0.4520833333333343
          },
          {
            "name": "F#5",
            "midi": 78,
            "time": 75,
            "velocity": 0.7637795275590551,
            "duration": 0.22499999999999432
          },
          {
            "name": "F#5",
            "midi": 78,
            "time": 75.25,
            "velocity": 0.7559055118110236,
            "duration": 0.4749999999999943
          },
          {
            "name": "E5",
            "midi": 76,
            "time": 75.75,
            "velocity": 0.7086614173228346,
            "duration": 0.22499999999999432
          },
          {
            "name": "C#5",
            "midi": 73,
            "time": 76,
            "velocity": 0.6771653543307087,
            "duration": 0.4520833333333343
          },
          {
            "name": "B4",
            "midi": 71,
            "time": 76.5,
            "velocity": 0.7007874015748031,
            "duration": 1.3499999999999943
          },
          {
            "name": "A4",
            "midi": 69,
            "time": 78,
            "velocity": 0.7007874015748031,
            "duration": 0.22499999999999432
          },
          {
            "name": "C#5",
            "midi": 73,
            "time": 78.5,
            "velocity": 0.7874015748031497,
            "duration": 0.4520833333333343
          },
          {
            "name": "C#5",
            "midi": 73,
            "time": 79,
            "velocity": 0.7244094488188977,
            "duration": 0.22499999999999432
          },
          {
            "name": "C#5",
            "midi": 73,
            "time": 79.25,
            "velocity": 0.7637795275590551,
            "duration": 0.4749999999999943
          },
          {
            "name": "B4",
            "midi": 71,
            "time": 79.75,
            "velocity": 0.7322834645669292,
            "duration": 0.22499999999999432
          },
          {
            "name": "C#5",
            "midi": 73,
            "time": 80,
            "velocity": 0.8267716535433071,
            "duration": 0.4520833333333343
          },
          {
            "name": "E5",
            "midi": 76,
            "time": 80.5,
            "velocity": 0.8346456692913385,
            "duration": 0.4520833333333343
          },
          {
            "name": "C#5",
            "midi": 73,
            "time": 81,
            "velocity": 0.7322834645669292,
            "duration": 0.9020833333333371
          },
          {
            "name": "B4",
            "midi": 71,
            "time": 82,
            "velocity": 0.7165354330708661,
            "duration": 0.4520833333333343
          },
          {
            "name": "A4",
            "midi": 69,
            "time": 82.5,
            "velocity": 0.6692913385826772,
            "duration": 0.4520833333333343
          },
          {
            "name": "A4",
            "midi": 69,
            "time": 83,
            "velocity": 0.7322834645669292,
            "duration": 0.22499999999999432
          },
          {
            "name": "A4",
            "midi": 69,
            "time": 83.25,
            "velocity": 0.8031496062992126,
            "duration": 0.4749999999999943
          },
          {
            "name": "G#4",
            "midi": 68,
            "time": 83.75,
            "velocity": 0.7086614173228346,
            "duration": 0.22499999999999432
          },
          {
            "name": "A4",
            "midi": 69,
            "time": 84,
            "velocity": 0.7559055118110236,
            "duration": 0.4520833333333343
          },
          {
            "name": "B4",
            "midi": 71,
            "time": 84.5,
            "velocity": 0.8031496062992126,
            "duration": 1.3499999999999943
          },
          {
            "name": "A4",
            "midi": 69,
            "time": 86,
            "velocity": 0.7165354330708661,
            "duration": 0.22499999999999432
          },
          {
            "name": "B4",
            "midi": 71,
            "time": 86.25,
            "velocity": 0.7874015748031497,
            "duration": 0.22499999999999432
          },
          {
            "name": "C#5",
            "midi": 73,
            "time": 86.5,
            "velocity": 0.8031496062992126,
            "duration": 0.4520833333333343
          },
          {
            "name": "C#5",
            "midi": 73,
            "time": 87,
            "velocity": 0.7559055118110236,
            "duration": 0.22499999999999432
          },
          {
            "name": "C#5",
            "midi": 73,
            "time": 87.25,
            "velocity": 0.7401574803149606,
            "duration": 0.4749999999999943
          },
          {
            "name": "B4",
            "midi": 71,
            "time": 87.75,
            "velocity": 0.7007874015748031,
            "duration": 0.22499999999999432
          },
          {
            "name": "A4",
            "midi": 69,
            "time": 88,
            "velocity": 0.7086614173228346,
            "duration": 0.34375
          },
          {
            "name": "F#4",
            "midi": 66,
            "time": 88.5,
            "velocity": 0.7322834645669292,
            "duration": 0.4520833333333343
          },
          {
            "name": "A4",
            "midi": 69,
            "time": 89,
            "velocity": 0.8188976377952756,
            "duration": 0.9020833333333371
          },
          {
            "name": "B4",
            "midi": 71,
            "time": 90,
            "velocity": 0.8740157480314961,
            "duration": 0.4520833333333343
          },
          {
            "name": "C#5",
            "midi": 73,
            "time": 90.5,
            "velocity": 0.8346456692913385,
            "duration": 0.4520833333333343
          },
          {
            "name": "C#5",
            "midi": 73,
            "time": 91,
            "velocity": 0.7637795275590551,
            "duration": 0.22499999999999432
          },
          {
            "name": "C#5",
            "midi": 73,
            "time": 91.25,
            "velocity": 0.7480314960629921,
            "duration": 0.4749999999999943
          },
          {
            "name": "B4",
            "midi": 71,
            "time": 91.75,
            "velocity": 0.7007874015748031,
            "duration": 0.22499999999999432
          },
          {
            "name": "A4",
            "midi": 69,
            "time": 92,
            "velocity": 0.7086614173228346,
            "duration": 0.34375
          },
          {
            "name": "F#4",
            "midi": 66,
            "time": 92.5,
            "velocity": 0.7007874015748031,
            "duration": 0.4520833333333343
          },
          {
            "name": "A4",
            "midi": 69,
            "time": 93,
            "velocity": 0.8188976377952756,
            "duration": 0.9020833333333371
          },
          {
            "name": "A4",
            "midi": 69,
            "time": 94,
            "velocity": 0.7637795275590551,
            "duration": 0.22499999999999432
          },
          {
            "name": "B4",
            "midi": 71,
            "time": 94.25,
            "velocity": 0.84251968503937,
            "duration": 0.22499999999999432
          },
          {
            "name": "C#5",
            "midi": 73,
            "time": 94.5,
            "velocity": 0.8110236220472441,
            "duration": 0.4520833333333343
          },
          {
            "name": "C#5",
            "midi": 73,
            "time": 95,
            "velocity": 0.7637795275590551,
            "duration": 0.22499999999999432
          },
          {
            "name": "C#5",
            "midi": 73,
            "time": 95.25,
            "velocity": 0.7401574803149606,
            "duration": 0.4749999999999943
          },
          {
            "name": "B4",
            "midi": 71,
            "time": 95.75,
            "velocity": 0.7165354330708661,
            "duration": 0.22499999999999432
          },
          {
            "name": "A4",
            "midi": 69,
            "time": 96,
            "velocity": 0.7244094488188977,
            "duration": 0.34375
          },
          {
            "name": "F#4",
            "midi": 66,
            "time": 96.5,
            "velocity": 0.6377952755905512,
            "duration": 0.4520833333333343
          },
          {
            "name": "A4",
            "midi": 69,
            "time": 97,
            "velocity": 0.8110236220472441,
            "duration": 0.9020833333333371
          },
          {
            "name": "C#5",
            "midi": 73,
            "time": 98,
            "velocity": 0.8267716535433071,
            "duration": 0.4520833333333343
          }
        ],
        "controlChanges": {
          "7": [
            {
              "number": 7,
              "time": 0,
              "value": 0.7874015748031497
            }
          ],
          "10": [
            {
              "number": 10,
              "time": 0,
              "value": 0.5039370078740157
            }
          ],
          "32": [
            {
              "number": 32,
              "time": 0,
              "value": 0
            }
          ],
          "91": [
            {
              "number": 91,
              "time": 0,
              "value": 0.47244094488188976
            }
          ],
          "121": [
            {
              "number": 121,
              "time": 0,
              "value": 0
            }
          ]
        },
        "id": 1,
        "name": "Piano RH",
        "instrumentNumber": 0,
        "instrument": "acoustic grand piano",
        "instrumentFamily": "piano",
        "channelNumber": 0,
        "isPercussion": false
      },
      {
        "startTime": 0,
        "duration": 0,
        "length": 0,
        "notes": [],
        "controlChanges": {
          "7": [
            {
              "number": 7,
              "time": 0,
              "value": 0.7874015748031497
            }
          ],
          "10": [
            {
              "number": 10,
              "time": 0,
              "value": 0.5039370078740157
            }
          ],
          "32": [
            {
              "number": 32,
              "time": 0,
              "value": 0
            }
          ],
          "91": [
            {
              "number": 91,
              "time": 0,
              "value": 0.47244094488188976
            }
          ],
          "121": [
            {
              "number": 121,
              "time": 0,
              "value": 0
            }
          ]
        },
        "id": 2,
        "name": "Piano LH",
        "instrumentNumber": 0,
        "instrument": "acoustic grand piano",
        "instrumentFamily": "piano",
        "channelNumber": 1,
        "isPercussion": false
      }
    ]
  }
]